<?xml version="1.0" encoding="UTF-8" standalone="no"?>
<!DOCTYPE svg PUBLIC "-//W3C//DTD SVG 1.1//EN" "http://www.w3.org/Graphics/SVG/1.1/DTD/svg11.dtd">
<svg width="100%" height="100%" viewBox="0 0 2481 3508" version="1.1" xmlns="http://www.w3.org/2000/svg" xmlns:xlink="http://www.w3.org/1999/xlink" xml:space="preserve" xmlns:serif="http://www.serif.com/" style="fill-rule:evenodd;clip-rule:evenodd;stroke-linecap:round;stroke-linejoin:round;stroke-miterlimit:1.5;">
    <g transform="matrix(0.684135,0,0,0.891906,794.637,383.009)">
        <rect x="-1213.31" y="-469.155" width="3729.06" height="4012.46" style="fill:rgb(254,255,172);"/>
    </g>
    <g>
        <g transform="matrix(1,0,0,1,0,-64)">
            <path d="M731.269,-54.067L927.768,42.108L1128.21,188.887L1327.32,406.559L1450.01,621.828L1631.57,1020.18L1700.12,922.87L1810.68,716.046L1857.67,660.565L2062.46,188.887L2352.82,-110.44" style="fill:rgb(86,86,86);"/>
        </g>
        <g transform="matrix(1,0,0,1,0,-64)">
            <path d="M731.269,-54.067L927.768,42.108L1128.21,188.887L1327.32,406.559L1450.01,621.828L1631.57,1020.18L1700.12,922.87L1810.68,716.046L1857.67,660.565L2062.46,188.887L2352.82,-110.44"/>
            <clipPath id="_clip1">
                <path d="M731.269,-54.067L927.768,42.108L1128.21,188.887L1327.32,406.559L1450.01,621.828L1631.57,1020.18L1700.12,922.87L1810.68,716.046L1857.67,660.565L2062.46,188.887L2352.82,-110.44"/>
            </clipPath>
            <g clip-path="url(#_clip1)">
                <g transform="matrix(1,0,0,1,-791.067,-764.111)">
                    <g id="_-0011101001110100100011011-" serif:id="(0011101001110100100011011)">
                        <text x="1772.2px" y="899.742px" style="font-family:'ArialMT', 'Arial', sans-serif;font-size:100px;fill:rgb(38,37,37);">001<tspan x="1931.62px 1979.82px 2035.43px " y="899.742px 899.742px 899.742px ">110</tspan>1001<tspan x="2306.09px 2354.28px 2409.89px " y="899.742px 899.742px 899.742px ">110</tspan>10010001<tspan x="2903.01px " y="899.742px ">1</tspan></text>
                        <text x="1772.2px" y="1003.01px" style="font-family:'ArialMT', 'Arial', sans-serif;font-size:100px;fill:rgb(38,37,37);">01<tspan x="1876.01px 1931.62px " y="1003.01px 1003.01px ">10</tspan>00001<tspan x="2257.89px 2306.09px 2361.7px " y="1003.01px 1003.01px 1003.01px ">110</tspan>101<tspan x="2576.74px 2632.35px " y="1003.01px 1003.01px ">10</tspan>0001<tspan x="2903.01px " y="1003.01px ">1</tspan></text>
                        <text x="1772.2px" y="1106.29px" style="font-family:'ArialMT', 'Arial', sans-serif;font-size:100px;fill:rgb(38,37,37);">01<tspan x="1876.01px 1931.62px " y="1106.29px 1106.29px ">10</tspan>01<tspan x="2091.05px 2146.66px " y="1106.29px 1106.29px ">10</tspan>101<tspan x="2361.7px 2417.32px " y="1106.29px 1106.29px ">10</tspan>10001<tspan x="2743.59px 2799.2px 2854.82px 2903.01px " y="1106.29px 1106.29px 1106.29px 1106.29px ">1011</tspan></text>
                        <text x="1772.2px" y="1209.56px" style="font-family:'ArialMT', 'Arial', sans-serif;font-size:100px;fill:rgb(38,37,37);">01<tspan x="1876.01px 1931.62px 1987.24px 2035.43px " y="1209.56px 1209.56px 1209.56px 1209.56px ">1011</tspan>11<tspan x="2187.43px " y="1209.56px ">0</tspan>101<tspan x="2402.47px 2458.09px " y="1209.56px 1209.56px ">10</tspan>0001<tspan x="2728.74px 2784.36px 2839.97px 2888.16px " y="1209.56px 1209.56px 1209.56px 1209.56px ">1011</tspan></text>
                        <text x="1772.2px" y="1312.83px" style="font-family:'ArialMT', 'Arial', sans-serif;font-size:100px;fill:rgb(38,37,37);">010101<tspan x="2098.47px 2154.08px 2209.7px 2257.89px 2306.09px 2361.7px " y="1312.83px 1312.83px 1312.83px 1312.83px 1312.83px 1312.83px ">101110</tspan>01<tspan x="2521.12px 2576.74px " y="1312.83px 1312.83px ">10</tspan>100010</text>
                        <text x="1772.2px" y="1416.1px" style="font-family:'ArialMT', 'Arial', sans-serif;font-size:100px;fill:rgb(38,37,37);">0000101001010100101<tspan x="2821.47px " y="1416.1px ">1</tspan>1</text>
                        <text x="1772.2px" y="1519.37px" style="font-family:'ArialMT', 'Arial', sans-serif;font-size:100px;fill:rgb(38,37,37);">01<tspan x="1876.01px 1931.62px 1987.24px 2035.43px 2091.05px " y="1519.37px 1519.37px 1519.37px 1519.37px 1519.37px ">10110</tspan>01<tspan x="2250.47px 2306.09px 2361.7px 2409.89px " y="1519.37px 1519.37px 1519.37px 1519.37px ">1011</tspan>1111111<tspan x="2802.86px 2858.48px 2906.67px " y="1519.37px 1519.37px 1519.37px ">011</tspan></text>
                        <text x="1772.2px" y="1622.64px" style="font-family:'ArialMT', 'Arial', sans-serif;font-size:100px;fill:rgb(38,37,37);">0001<tspan x="1987.24px 2035.43px 2091.05px " y="1622.64px 1622.64px 1622.64px ">110</tspan>00001<tspan x="2417.32px 2472.93px 2528.55px 2576.74px 2632.35px 2687.97px 2736.16px 2784.36px 2839.97px " y="1622.64px 1622.64px 1622.64px 1622.64px 1622.64px 1622.64px 1622.64px 1622.64px 1622.64px ">101101110</tspan>0</text>
                        <text x="1772.2px" y="1725.91px" style="font-family:'ArialMT', 'Arial', sans-serif;font-size:100px;fill:rgb(38,37,37);">10101<tspan x="2042.85px " y="1725.91px ">1</tspan>111<tspan x="2243.05px " y="1725.91px ">0</tspan>01<tspan x="2402.47px 2458.09px " y="1725.91px 1725.91px ">10</tspan>100101<tspan x="2839.97px 2895.59px " y="1725.91px 1725.91px ">10</tspan></text>
                        <text x="1772.2px" y="1829.19px" style="font-family:'ArialMT', 'Arial', sans-serif;font-size:100px;fill:rgb(38,37,37);">0001<tspan x="1987.24px 2042.85px " y="1829.19px 1829.19px ">10</tspan>0101<tspan x="2313.51px " y="1829.19px ">1</tspan>1111<tspan x="2561.89px 2617.51px 2665.7px 2721.32px " y="1829.19px 1829.19px 1829.19px 1829.19px ">0110</tspan>101</text>
                        <text x="1772.2px" y="1932.46px" style="font-family:'ArialMT', 'Arial', sans-serif;font-size:100px;fill:rgb(38,37,37);">1001<tspan x="1987.24px " y="1932.46px ">1</tspan>111111<tspan x="2332.01px 2387.63px 2435.82px 2484.01px 2539.63px " y="1932.46px 1932.46px 1932.46px 1932.46px 1932.46px ">01110</tspan>010101</text>
                        <text x="1772.2px" y="2035.73px" style="font-family:'ArialMT', 'Arial', sans-serif;font-size:100px;fill:rgb(38,37,37);">101<tspan x="1931.62px 1987.24px 2042.85px 2091.05px 2146.66px " y="2035.73px 2035.73px 2035.73px 2035.73px 2035.73px ">10110</tspan>00101<tspan x="2472.93px 2521.12px 2576.74px " y="2035.73px 2035.73px 2035.73px ">110</tspan>01<tspan x="2736.16px 2784.36px 2839.97px " y="2035.73px 2035.73px 2035.73px ">110</tspan>1</text>
                        <text x="1772.2px" y="2139px" style="font-family:'ArialMT', 'Arial', sans-serif;font-size:100px;fill:rgb(38,37,37);">10000001<tspan x="2209.7px 2257.89px 2313.51px " y="2139px 2139px 2139px ">110</tspan>101<tspan x="2528.55px " y="2139px ">1</tspan>111<tspan x="2728.74px 2784.36px 2832.55px " y="2139px 2139px 2139px ">011</tspan>1</text>
                        <text x="1772.2px" y="2242.27px" style="font-family:'ArialMT', 'Arial', sans-serif;font-size:100px;fill:rgb(38,37,37);">10101001<tspan x="2209.7px 2257.89px 2313.51px 2369.12px 2417.32px 2472.93px " y="2242.27px 2242.27px 2242.27px 2242.27px 2242.27px 2242.27px ">110110</tspan>00101<tspan x="2799.2px 2847.39px 2903.01px " y="2242.27px 2242.27px 2242.27px ">110</tspan></text>
                        <text x="1772.2px" y="2345.54px" style="font-family:'ArialMT', 'Arial', sans-serif;font-size:100px;fill:rgb(38,37,37);">1001<tspan x="1987.24px " y="2345.54px ">1</tspan>1111<tspan x="2235.63px " y="2345.54px ">0</tspan>00001001<tspan x="2728.74px 2784.36px 2839.97px 2888.16px " y="2345.54px 2345.54px 2345.54px 2345.54px ">1011</tspan></text>
                        <text x="1772.2px" y="2448.81px" style="font-family:'ArialMT', 'Arial', sans-serif;font-size:100px;fill:rgb(38,37,37);">01<tspan x="1876.01px 1931.62px " y="2448.81px 2448.81px ">10</tspan>01001<tspan x="2257.89px 2313.51px 2369.12px 2417.32px 2472.93px " y="2448.81px 2448.81px 2448.81px 2448.81px 2448.81px ">10110</tspan>01<tspan x="2632.35px 2687.97px 2743.59px 2791.78px 2847.39px " y="2448.81px 2448.81px 2448.81px 2448.81px 2448.81px ">10110</tspan>0</text>
                        <text x="1772.2px" y="2552.09px" style="font-family:'ArialMT', 'Arial', sans-serif;font-size:100px;fill:rgb(38,37,37);">10010001<tspan x="2209.7px 2265.31px 2320.93px 2369.12px 2424.74px 2480.35px 2528.55px 2584.16px " y="2552.09px 2552.09px 2552.09px 2552.09px 2552.09px 2552.09px 2552.09px 2552.09px ">10110110</tspan>01<tspan x="2743.59px 2799.2px 2854.82px 2903.01px " y="2552.09px 2552.09px 2552.09px 2552.09px ">1011</tspan></text>
                        <text x="1772.2px" y="2655.36px" style="font-family:'ArialMT', 'Arial', sans-serif;font-size:100px;fill:rgb(38,37,37);">0001<tspan x="1987.24px 2035.43px 2091.05px 2146.66px 2194.85px 2250.47px 2306.09px 2354.28px 2402.47px 2458.09px 2513.7px 2561.89px 2617.51px " y="2655.36px 2655.36px 2655.36px 2655.36px 2655.36px 2655.36px 2655.36px 2655.36px 2655.36px 2655.36px 2655.36px 2655.36px 2655.36px ">1101101110110</tspan>10001</text>
                        <text x="1772.2px" y="2758.63px" style="font-family:'ArialMT', 'Arial', sans-serif;font-size:100px;fill:rgb(38,37,37);">1<tspan x="1820.39px " y="2758.63px ">1</tspan>111<tspan x="2020.59px " y="2758.63px ">0</tspan>00101001001<tspan x="2680.55px " y="2758.63px ">1</tspan>1111</text>
                        <text x="1772.2px" y="2861.9px" style="font-family:'ArialMT', 'Arial', sans-serif;font-size:100px;fill:rgb(38,37,37);">1001001<tspan x="2154.08px 2209.7px " y="2861.9px 2861.9px ">10</tspan>101<tspan x="2424.74px " y="2861.9px ">1</tspan>111111<tspan x="2769.51px " y="2861.9px ">0</tspan>01</text>
                        <text x="1772.2px" y="2965.17px" style="font-family:'ArialMT', 'Arial', sans-serif;font-size:100px;fill:rgb(38,37,37);">101001<tspan x="2098.47px 2154.08px " y="2965.17px 2965.17px ">10</tspan>01<tspan x="2313.51px 2369.12px " y="2965.17px 2965.17px ">10</tspan>00100001<tspan x="2862.24px 2917.85px " y="2965.17px 2965.17px ">10</tspan></text>
                        <text x="1772.2px" y="3068.44px" style="font-family:'ArialMT', 'Arial', sans-serif;font-size:100px;fill:rgb(38,37,37);">00101<tspan x="2042.85px 2098.47px " y="3068.44px 3068.44px ">10</tspan>00100101010001<tspan x="2925.27px " y="3068.44px ">1</tspan></text>
                        <text x="1772.2px" y="3171.72px" style="font-family:'ArialMT', 'Arial', sans-serif;font-size:100px;fill:rgb(38,37,37);">101<tspan x="1931.62px 1987.24px " y="3171.72px 3171.72px ">10</tspan>100001<tspan x="2369.12px 2424.74px " y="3171.72px 3171.72px ">10</tspan>001<tspan x="2639.78px 2695.39px 2751.01px 2799.2px " y="3171.72px 3171.72px 3171.72px 3171.72px ">1011</tspan>11</text>
                        <text x="1772.2px" y="3274.99px" style="font-family:'ArialMT', 'Arial', sans-serif;font-size:100px;fill:rgb(38,37,37);">1<tspan x="1820.39px 1876.01px " y="3274.99px 3274.99px ">10</tspan>01<tspan x="2035.43px 2091.05px " y="3274.99px 3274.99px ">10</tspan>0101<tspan x="2361.7px 2417.32px 2472.93px 2521.12px 2576.74px " y="3274.99px 3274.99px 3274.99px 3274.99px 3274.99px ">10110</tspan>101001</text>
                        <text x="1772.2px" y="3378.26px" style="font-family:'ArialMT', 'Arial', sans-serif;font-size:100px;fill:rgb(38,37,37);">100001<tspan x="2098.47px 2154.08px " y="3378.26px 3378.26px ">10</tspan>1001<tspan x="2424.74px 2480.35px " y="3378.26px 3378.26px ">10</tspan>00101<tspan x="2806.62px " y="3378.26px ">1</tspan>11</text>
                        <text x="1772.2px" y="3481.53px" style="font-family:'ArialMT', 'Arial', sans-serif;font-size:100px;fill:rgb(38,37,37);">0001001<tspan x="2154.08px " y="3481.53px ">1</tspan>111<tspan x="2354.28px " y="3481.53px ">0</tspan>000001<tspan x="2736.16px 2791.78px " y="3481.53px 3481.53px ">10</tspan>01</text>
                        <text x="1772.2px" y="3584.8px" style="font-family:'ArialMT', 'Arial', sans-serif;font-size:100px;fill:rgb(38,37,37);">1<tspan x="1820.39px 1876.01px " y="3584.8px 3584.8px ">10</tspan>1001<tspan x="2146.66px 2194.85px 2250.47px 2306.09px 2354.28px 2409.89px " y="3584.8px 3584.8px 3584.8px 3584.8px 3584.8px 3584.8px ">110110</tspan>101010001</text>
                        <text x="1772.2px" y="3688.07px" style="font-family:'ArialMT', 'Arial', sans-serif;font-size:100px;fill:rgb(38,37,37);">01<tspan x="1876.01px 1931.62px 1987.24px 2035.43px 2091.05px " y="3688.07px 3688.07px 3688.07px 3688.07px 3688.07px ">10110</tspan>101001<tspan x="2472.93px 2528.55px 2584.16px 2632.35px 2687.97px " y="3688.07px 3688.07px 3688.07px 3688.07px 3688.07px ">10110</tspan>001<tspan x="2903.01px " y="3688.07px ">1</tspan></text>
                        <text x="1772.2px" y="3791.34px" style="font-family:'ArialMT', 'Arial', sans-serif;font-size:100px;fill:rgb(38,37,37);">1<tspan x="1820.39px " y="3791.34px ">1</tspan>11<tspan x="1972.39px " y="3791.34px ">0</tspan>101001<tspan x="2354.28px " y="3791.34px ">1</tspan>11<tspan x="2506.28px " y="3791.34px ">0</tspan>00001<tspan x="2832.55px " y="3791.34px ">1</tspan>1</text>
                        <text x="1772.2px" y="3894.62px" style="font-family:'ArialMT', 'Arial', sans-serif;font-size:100px;fill:rgb(38,37,37);">1000010101<tspan x="2320.93px 2369.12px 2424.74px 2480.35px 2528.55px 2584.16px " y="3894.62px 3894.62px 3894.62px 3894.62px 3894.62px 3894.62px ">110110</tspan>10101<tspan x="2910.43px " y="3894.62px ">1</tspan></text>
                        <text x="1772.2px" y="3997.89px" style="font-family:'ArialMT', 'Arial', sans-serif;font-size:100px;fill:rgb(38,37,37);">01<tspan x="1876.01px 1924.2px 1979.82px " y="3997.89px 3997.89px 3997.89px ">110</tspan>00001<tspan x="2306.09px 2361.7px " y="3997.89px 3997.89px ">10</tspan>01<tspan x="2521.12px " y="3997.89px ">1</tspan>111<tspan x="2721.32px 2776.93px 2825.13px " y="3997.89px 3997.89px 3997.89px ">011</tspan>1</text>
                        <text x="1772.2px" y="4101.16px" style="font-family:'ArialMT', 'Arial', sans-serif;font-size:100px;fill:rgb(38,37,37);">0001<tspan x="1987.24px 2035.43px 2091.05px " y="4101.16px 4101.16px 4101.16px ">110</tspan>00100001<tspan x="2584.16px 2632.35px 2687.97px " y="4101.16px 4101.16px 4101.16px ">110</tspan>0000</text>
                        <text x="1772.2px" y="4204.43px" style="font-family:'ArialMT', 'Arial', sans-serif;font-size:100px;fill:rgb(38,37,37);">101<tspan x="1931.62px 1987.24px 2042.85px 2091.05px " y="4204.43px 4204.43px 4204.43px 4204.43px ">1011</tspan>111<tspan x="2291.24px " y="4204.43px ">0</tspan>001000001<tspan x="2839.97px 2895.59px " y="4204.43px 4204.43px ">10</tspan></text>
                        <text x="1772.2px" y="4307.7px" style="font-family:'ArialMT', 'Arial', sans-serif;font-size:100px;fill:rgb(38,37,37);">01<tspan x="1876.01px 1931.62px " y="4307.7px 4307.7px ">10</tspan>00101010101<tspan x="2591.58px 2639.78px 2695.39px " y="4307.7px 4307.7px 4307.7px ">110</tspan>0001</text>
                        <text x="1772.2px" y="4410.97px" style="font-family:'ArialMT', 'Arial', sans-serif;font-size:100px;fill:rgb(38,37,37);">01<tspan x="1876.01px 1931.62px " y="4410.97px 4410.97px ">10</tspan>100101<tspan x="2313.51px " y="4410.97px ">1</tspan>11<tspan x="2465.51px " y="4410.97px ">0</tspan>10001<tspan x="2791.78px 2847.39px " y="4410.97px 4410.97px ">10</tspan>1</text>
                    </g>
                </g>
            </g>
        </g>
        <g transform="matrix(1,0,0,1,0,-64)">
            <g transform="matrix(0.776492,0,0,1.04734,205.703,-259.08)">
                <path d="M1981.31,3316.44C1981.31,3304.48 1974.9,3293 1963.49,3284.54C1952.08,3276.08 1936.6,3271.33 1920.47,3271.33C1877.75,3271.33 1820.86,3271.33 1778.15,3271.33C1762.02,3271.33 1746.54,3276.08 1735.13,3284.54C1723.72,3293 1717.31,3304.48 1717.31,3316.44C1717.31,3358.45 1717.31,3420.75 1717.31,3462.77C1717.31,3474.73 1723.72,3486.2 1735.13,3494.66C1746.54,3503.12 1762.02,3507.87 1778.15,3507.87C1820.86,3507.87 1877.75,3507.87 1920.47,3507.87C1936.6,3507.87 1952.08,3503.12 1963.49,3494.66C1974.9,3486.2 1981.31,3474.73 1981.31,3462.77C1981.31,3420.75 1981.31,3358.45 1981.31,3316.44Z" style="fill:rgb(173,173,173);"/>
            </g>
            <g transform="matrix(0.776492,0,0,1.04734,211.703,47.6629)">
                <path d="M1981.31,3316.44C1981.31,3304.48 1974.9,3293 1963.49,3284.54C1952.08,3276.08 1936.6,3271.33 1920.47,3271.33C1877.75,3271.33 1820.86,3271.33 1778.15,3271.33C1762.02,3271.33 1746.54,3276.08 1735.13,3284.54C1723.72,3293 1717.31,3304.48 1717.31,3316.44C1717.31,3358.45 1717.31,3420.75 1717.31,3462.77C1717.31,3474.73 1723.72,3486.2 1735.13,3494.66C1746.54,3503.12 1762.02,3507.87 1778.15,3507.87C1820.86,3507.87 1877.75,3507.87 1920.47,3507.87C1936.6,3507.87 1952.08,3503.12 1963.49,3494.66C1974.9,3486.2 1981.31,3474.73 1981.31,3462.77C1981.31,3420.75 1981.31,3358.45 1981.31,3316.44Z" style="fill:rgb(173,173,173);"/>
            </g>
            <g transform="matrix(0.776492,0,0,1.04734,205.703,-565.822)">
                <path d="M1981.31,3316.44C1981.31,3304.48 1974.9,3293 1963.49,3284.54C1952.08,3276.08 1936.6,3271.33 1920.47,3271.33C1877.75,3271.33 1820.86,3271.33 1778.15,3271.33C1762.02,3271.33 1746.54,3276.08 1735.13,3284.54C1723.72,3293 1717.31,3304.48 1717.31,3316.44C1717.31,3358.45 1717.31,3420.75 1717.31,3462.77C1717.31,3474.73 1723.72,3486.2 1735.13,3494.66C1746.54,3503.12 1762.02,3507.87 1778.15,3507.87C1820.86,3507.87 1877.75,3507.87 1920.47,3507.87C1936.6,3507.87 1952.08,3503.12 1963.49,3494.66C1974.9,3486.2 1981.31,3474.73 1981.31,3462.77C1981.31,3420.75 1981.31,3358.45 1981.31,3316.44Z" style="fill:rgb(173,173,173);"/>
            </g>
            <g transform="matrix(0.776492,0,0,1.04734,205.703,-1179.31)">
                <path d="M1981.31,3316.44C1981.31,3304.48 1974.9,3293 1963.49,3284.54C1952.08,3276.08 1936.6,3271.33 1920.47,3271.33C1877.75,3271.33 1820.86,3271.33 1778.15,3271.33C1762.02,3271.33 1746.54,3276.08 1735.13,3284.54C1723.72,3293 1717.31,3304.48 1717.31,3316.44C1717.31,3358.45 1717.31,3420.75 1717.31,3462.77C1717.31,3474.73 1723.72,3486.2 1735.13,3494.66C1746.54,3503.12 1762.02,3507.87 1778.15,3507.87L1920.47,3507.87C1936.6,3507.87 1952.08,3503.12 1963.49,3494.66C1974.9,3486.2 1981.31,3474.73 1981.31,3462.77C1981.31,3420.75 1981.31,3358.45 1981.31,3316.44Z" style="fill:rgb(173,173,173);"/>
            </g>
            <g transform="matrix(0.776492,0,0,1.04734,205.703,-1486.05)">
                <path d="M1981.31,3316.44C1981.31,3304.48 1974.9,3293 1963.49,3284.54C1952.08,3276.08 1936.6,3271.33 1920.47,3271.33C1877.75,3271.33 1820.86,3271.33 1778.15,3271.33C1762.02,3271.33 1746.54,3276.08 1735.13,3284.54C1723.72,3293 1717.31,3304.48 1717.31,3316.44C1717.31,3358.45 1717.31,3420.75 1717.31,3462.77C1717.31,3474.73 1723.72,3486.2 1735.13,3494.66C1746.54,3503.12 1762.02,3507.87 1778.15,3507.87C1820.86,3507.87 1877.75,3507.87 1920.47,3507.87C1936.6,3507.87 1952.08,3503.12 1963.49,3494.66C1974.9,3486.2 1981.31,3474.73 1981.31,3462.77C1981.31,3420.75 1981.31,3358.45 1981.31,3316.44Z" style="fill:rgb(173,173,173);"/>
            </g>
            <g transform="matrix(0.776492,0,0,1.04734,205.703,-1792.79)">
                <path d="M1981.31,3316.44C1981.31,3304.48 1974.9,3293 1963.49,3284.54C1952.08,3276.08 1936.6,3271.33 1920.47,3271.33C1877.75,3271.33 1820.86,3271.33 1778.15,3271.33C1762.02,3271.33 1746.54,3276.08 1735.13,3284.54C1723.72,3293 1717.31,3304.48 1717.31,3316.44C1717.31,3358.45 1717.31,3420.75 1717.31,3462.77C1717.31,3474.73 1723.72,3486.2 1735.13,3494.66C1746.54,3503.12 1762.02,3507.87 1778.15,3507.87C1820.86,3507.87 1877.75,3507.87 1920.47,3507.87C1936.6,3507.87 1952.08,3503.12 1963.49,3494.66C1974.9,3486.2 1981.31,3474.73 1981.31,3462.77C1981.31,3420.75 1981.31,3358.45 1981.31,3316.44Z" style="fill:rgb(173,173,173);"/>
            </g>
            <g transform="matrix(0.776492,0,0,1.04734,205.703,-2099.53)">
                <path d="M1981.31,3316.44C1981.31,3304.48 1974.9,3293 1963.49,3284.54C1952.08,3276.08 1936.6,3271.33 1920.47,3271.33C1877.75,3271.33 1820.86,3271.33 1778.15,3271.33C1762.02,3271.33 1746.54,3276.08 1735.13,3284.54C1723.72,3293 1717.31,3304.48 1717.31,3316.44C1717.31,3358.45 1717.31,3420.75 1717.31,3462.77C1717.31,3474.73 1723.72,3486.2 1735.13,3494.66C1746.54,3503.12 1762.02,3507.87 1778.15,3507.87C1820.86,3507.87 1877.75,3507.87 1920.47,3507.87C1936.6,3507.87 1952.08,3503.12 1963.49,3494.66C1974.9,3486.2 1981.31,3474.73 1981.31,3462.77C1981.31,3420.75 1981.31,3358.45 1981.31,3316.44Z" style="fill:rgb(173,173,173);"/>
            </g>
            <g transform="matrix(0.720276,0.290074,-0.391256,0.971519,1991.88,-3509.02)">
                <path d="M1981.31,3316.44C1981.31,3304.48 1974.9,3293 1963.49,3284.54C1952.08,3276.08 1936.6,3271.33 1920.47,3271.33C1877.75,3271.33 1820.86,3271.33 1778.15,3271.33C1762.02,3271.33 1746.54,3276.08 1735.13,3284.54C1723.72,3293 1717.31,3304.48 1717.31,3316.44C1717.31,3358.45 1717.31,3420.75 1717.31,3462.77C1717.31,3474.73 1723.72,3486.2 1735.13,3494.66C1746.54,3503.12 1762.02,3507.87 1778.15,3507.87C1820.86,3507.87 1877.75,3507.87 1920.47,3507.87C1936.6,3507.87 1952.08,3503.12 1963.49,3494.66C1974.9,3486.2 1981.31,3474.73 1981.31,3462.77C1981.31,3420.75 1981.31,3358.45 1981.31,3316.44Z" style="fill:rgb(173,173,173);"/>
            </g>
            <g transform="matrix(0.668172,-0.395584,0.53357,0.90124,-1659.29,-1806.9)">
                <path d="M1981.31,3316.44C1981.31,3304.48 1974.9,3293 1963.49,3284.54C1952.08,3276.08 1936.6,3271.33 1920.47,3271.33C1877.75,3271.33 1820.86,3271.33 1778.15,3271.33C1762.02,3271.33 1746.54,3276.08 1735.13,3284.54C1723.72,3293 1717.31,3304.48 1717.31,3316.44C1717.31,3358.45 1717.31,3420.75 1717.31,3462.77C1717.31,3474.73 1723.72,3486.2 1735.13,3494.66C1746.54,3503.12 1762.02,3507.87 1778.15,3507.87L1920.47,3507.87C1936.6,3507.87 1952.08,3503.12 1963.49,3494.66C1974.9,3486.2 1981.31,3474.73 1981.31,3462.77C1981.31,3420.75 1981.31,3358.45 1981.31,3316.44Z" style="fill:rgb(173,173,173);"/>
            </g>
            <g transform="matrix(0.504386,-0.590369,0.796298,0.680323,-2604.46,-1098.11)">
                <path d="M1981.31,3316.44C1981.31,3304.48 1974.9,3293 1963.49,3284.54C1952.08,3276.08 1936.6,3271.33 1920.47,3271.33L1778.15,3271.33C1762.02,3271.33 1746.54,3276.08 1735.13,3284.54C1723.72,3293 1717.31,3304.48 1717.31,3316.44C1717.31,3358.45 1717.31,3420.75 1717.31,3462.77C1717.31,3474.73 1723.72,3486.2 1735.13,3494.66C1746.54,3503.12 1762.02,3507.87 1778.15,3507.87C1820.86,3507.87 1877.75,3507.87 1920.47,3507.87C1936.6,3507.87 1952.08,3503.12 1963.49,3494.66C1974.9,3486.2 1981.31,3474.73 1981.31,3462.77C1981.31,3420.75 1981.31,3358.45 1981.31,3316.44Z" style="fill:rgb(173,173,173);"/>
            </g>
            <g transform="matrix(0.776492,0,0,1.04734,205.703,-872.564)">
                <path d="M1981.31,3316.44C1981.31,3304.48 1974.9,3293 1963.49,3284.54C1952.08,3276.08 1936.6,3271.33 1920.47,3271.33L1778.15,3271.33C1762.02,3271.33 1746.54,3276.08 1735.13,3284.54C1723.72,3293 1717.31,3304.48 1717.31,3316.44C1717.31,3358.45 1717.31,3420.75 1717.31,3462.77C1717.31,3474.73 1723.72,3486.2 1735.13,3494.66C1746.54,3503.12 1762.02,3507.87 1778.15,3507.87C1820.86,3507.87 1877.75,3507.87 1920.47,3507.87C1936.6,3507.87 1952.08,3503.12 1963.49,3494.66C1974.9,3486.2 1981.31,3474.73 1981.31,3462.77C1981.31,3420.75 1981.31,3358.45 1981.31,3316.44Z" style="fill:rgb(173,173,173);"/>
            </g>
            <g transform="matrix(0.761289,0.182031,-0.182031,0.761289,1010.7,-323.842)">
                <g transform="matrix(0.753232,0,0,0.753232,723.175,-11.4012)">
                    <path d="M545.956,2343.68C503.114,2343.68 467.852,2309.99 465.91,2267.19C463.654,2219.8 460.172,2154.27 455.287,2081.87C454.353,2068.07 449.866,2054.75 442.261,2043.21C317.616,1851.4 280.583,1462.07 686.353,1462.07C1092.12,1462.07 1055.09,1851.4 930.519,2043.26C922.923,2054.79 918.441,2068.09 917.508,2081.87C912.533,2154.27 909.051,2219.8 906.791,2267.19C904.849,2309.98 869.588,2343.68 826.749,2343.68C747.652,2343.68 625.053,2343.68 545.956,2343.68Z" style="fill:rgb(173,173,173);"/>
                </g>
                <g transform="matrix(0.528837,0,0,0.839931,965.986,326.036)">
                    <rect x="269.407" y="514.095" width="498.072" height="790.617" style="fill:rgb(173,173,173);fill-opacity:0;stroke:rgb(173,173,173);stroke-width:159.28px;"/>
                </g>
                <g transform="matrix(1,0,0,1,4.54747e-13,33.9297)">
                    <rect x="1108.46" y="888.922" width="263.399" height="0.509" style="fill:rgb(173,173,173);fill-opacity:0;stroke:rgb(173,173,173);stroke-width:111.79px;"/>
                </g>
            </g>
        </g>
    </g>
    <g transform="matrix(0.366083,0,0,0.366083,131.973,-210.378)">
        <text x="210.607px" y="1999.86px" style="font-family:'ArialMT', 'Arial', sans-serif;font-size:343.315px;fill:rgb(51,51,51);">Wilhelm-Hittorf-</text>
        <text x="210.607px" y="2354.4px" style="font-family:'ArialMT', 'Arial', sans-serif;font-size:343.315px;fill:rgb(51,51,51);">Gymnasium</text>
    </g>
    <g transform="matrix(0.336106,0,0,0.336106,210.172,2391.49)">
        <text x="0px" y="341.947px" style="font-family:'ArialMT', 'Arial', sans-serif;font-size:477.374px;fill:rgb(51,51,51);">Huf<tspan x="734.243px 866.873px " y="341.947px 341.947px ">fm</tspan>an-</text>
        <text x="0px" y="834.939px" style="font-family:'ArialMT', 'Arial', sans-serif;font-size:477.374px;fill:rgb(51,51,51);">Komprimierung</text>
        <text x="0px" y="1748.22px" style="font-family:'ArialMT', 'Arial', sans-serif;font-size:294.783px;fill:rgb(51,51,51);">Stef<tspan x="519.037px 600.937px " y="1748.22px 1748.22px ">fe</tspan>n Molitor<tspan x="1878.95px 1960.85px " y="1748.22px 1748.22px ">, </tspan>Informatik LK</text>
        <text x="0px" y="2052.64px" style="font-family:'ArialMT', 'Arial', sans-serif;font-size:294.783px;fill:rgb(51,51,51);">von Herrn Kehlbreier</text>
        <text x="0px" y="2661.5px" style="font-family:'ArialMT', 'Arial', sans-serif;font-size:294.783px;fill:rgb(51,51,51);">Q1 2021/2022</text>
    </g>
</svg>
